grf
version=1
nRows=11
nColumns=37
inDegrees=no
endheader
time	ground_force_1_vx	ground_force_1_vy	ground_force_1_vz	ground_force_1_px	ground_force_1_py	ground_force_1_pz	ground_moment_1_mx	ground_moment_1_my	ground_moment_1_mz	ground_force_2_vx	ground_force_2_vy	ground_force_2_vz	ground_force_2_px	ground_force_2_py	ground_force_2_pz	ground_moment_2_mx	ground_moment_2_my	ground_moment_2_mz	ground_force_3_vx	ground_force_3_vy	ground_force_3_vz	ground_force_3_px	ground_force_3_py	ground_force_3_pz	ground_moment_3_mx	ground_moment_3_my	ground_moment_3_mz	ground_force_4_vx	ground_force_4_vy	ground_force_4_vz	ground_force_4_px	ground_force_4_py	ground_force_4_pz	ground_moment_4_mx	ground_moment_4_my	ground_moment_4_mz
      0.00000000	      0.00000000	     -0.00000000	      0.00000000	      0.00000000	      0.00000000	      0.00000000	      0.00000000	      0.00000000	      0.00000000	      2.33082056	     12.87123203	   -376.43521118	   -292.14446468	  -1000.60342323	      0.00000000	      0.00000000	      0.00000000	   2082.54228970	     -2.52105880	    -19.10254647	   -351.14746094	   -276.24050237	   -724.82119932	      0.00000000	      0.00000000	     -0.00000000	  -3169.23702560	      0.00000000	     -0.00000000	      0.00000000	      0.00000000	      0.00000000	      0.00000000	      0.00000000	      0.00000000	      0.00000000
      0.01000000	      0.00000000	     -0.00000000	      0.00000000	      0.00000000	      0.00000000	      0.00000000	      0.00000000	      0.00000000	      0.00000000	      1.97665656	     12.79572582	   -371.89849854	   -292.16393922	  -1001.68633761	      0.00000000	      0.00000000	      0.00000000	   1958.02719921	     -2.48390371	    -19.83402993	   -357.38656616	   -276.66987499	   -724.31746185	      0.00000000	      0.00000000	     -0.00000000	  -3125.34017105	      0.00000000	     -0.00000000	      0.00000000	      0.00000000	      0.00000000	      0.00000000	      0.00000000	      0.00000000	      0.00000000
      0.02000000	      0.00000000	     -0.00000000	      0.00000000	      0.00000000	      0.00000000	      0.00000000	      0.00000000	      0.00000000	      0.00000000	      2.24448037	     12.22507000	   -366.69973755	   -290.75115423	  -1001.50682735	      0.00000000	     -0.00000000	      0.00000000	   1958.03733958	     -2.30648217	    -20.17363528	   -362.21368408	   -276.99212358	   -724.34000487	      0.00000000	      0.00000000	     -0.00000000	  -3084.11059995	      0.00000000	     -0.00000000	      0.00000000	      0.00000000	      0.00000000	      0.00000000	      0.00000000	      0.00000000	      0.00000000
      0.03000000	      0.00000000	     -0.00000000	      0.00000000	      0.00000000	      0.00000000	      0.00000000	      0.00000000	      0.00000000	      0.00000000	      1.73047626	     10.42825699	   -358.92953491	   -292.04316152	   -999.32634202	      0.00000000	      0.00000000	      0.00000000	   1732.52751171	     -1.76041073	    -21.14485344	   -369.34808350	   -278.12181035	   -724.13120893	      0.00000000	      0.00000000	     -0.00000000	  -3164.29901792	      0.00000000	     -0.00000000	      0.00000000	      0.00000000	      0.00000000	      0.00000000	      0.00000000	      0.00000000	      0.00000000
      0.04000000	      0.00000000	     -0.00000000	      0.00000000	      0.00000000	      0.00000000	      0.00000000	      0.00000000	      0.00000000	      0.00000000	      1.46245635	     10.16086578	   -356.82757568	   -291.53165501	  -1001.13084906	      0.00000000	     -0.00000000	     -0.00000000	   1900.38387350	     -1.49404677	    -22.73743235	   -375.47866821	   -278.05318638	   -723.76956998	      0.00000000	      0.00000000	     -0.00000000	  -3179.41903238	      0.00000000	     -0.00000000	      0.00000000	      0.00000000	      0.00000000	      0.00000000	      0.00000000	      0.00000000	      0.00000000
      0.05000000	      0.00000000	     -0.00000000	      0.00000000	      0.00000000	      0.00000000	      0.00000000	      0.00000000	      0.00000000	      0.00000000	      1.87342072	     10.06177330	   -350.13894653	   -290.53329990	  -1001.47500796	      0.00000000	      0.00000000	      0.00000000	   1964.31631249	     -1.45842318	    -23.64548861	   -380.84088135	   -278.11498684	   -723.19776007	      0.00000000	      0.00000000	     -0.00000000	  -3112.37514685	      0.00000000	     -0.00000000	      0.00000000	      0.00000000	      0.00000000	      0.00000000	      0.00000000	      0.00000000	      0.00000000
      0.06000000	      0.00000000	     -0.00000000	      0.00000000	      0.00000000	      0.00000000	      0.00000000	      0.00000000	      0.00000000	      0.00000000	      2.09158993	     10.16086578	   -343.48672485	   -290.40425724	   -999.89572864	      0.00000000	      0.00000000	      0.00000000	   2074.24510811	     -0.95105364	    -24.73007194	   -384.74914551	   -278.27944894	   -723.35845094	      0.00000000	      0.00000000	     -0.00000000	  -3104.09966498	      0.00000000	     -0.00000000	      0.00000000	      0.00000000	      0.00000000	      0.00000000	      0.00000000	      0.00000000	      0.00000000
      0.07000000	      0.00000000	     -0.00000000	      0.00000000	      0.00000000	      0.00000000	      0.00000000	      0.00000000	      0.00000000	      0.00000000	      1.96263123	     10.07173538	   -339.50354004	   -290.69941928	  -1001.11465717	      0.00000000	      0.00000000	      0.00000000	   1719.97103145	     -0.73437846	    -25.91283983	   -389.84756470	   -278.75203291	   -723.25293925	      0.00000000	     -0.00000000	     -0.00000000	  -3090.75500030	      0.00000000	     -0.00000000	      0.00000000	      0.00000000	      0.00000000	      0.00000000	      0.00000000	      0.00000000	      0.00000000
      0.08000000	      0.00000000	     -0.00000000	      0.00000000	      0.00000000	      0.00000000	      0.00000000	      0.00000000	      0.00000000	      0.00000000	      2.23026276	     10.31171131	   -334.91192627	   -290.33007344	   -999.90375323	      0.00000000	      0.00000000	      0.00000000	   1951.52358731	     -0.55689327	    -27.09023852	   -393.84301758	   -278.57951862	   -722.42280874	      0.00000000	      0.00000000	     -0.00000000	  -2932.19234107	      0.00000000	     -0.00000000	      0.00000000	      0.00000000	      0.00000000	      0.00000000	      0.00000000	      0.00000000	      0.00000000
      0.09000000	      0.00000000	     -0.00000000	      0.00000000	      0.00000000	      0.00000000	      0.00000000	      0.00000000	      0.00000000	      0.00000000	      1.89793229	      9.99826622	   -333.07577515	   -290.85190440	  -1001.35558084	      0.00000000	      0.00000000	      0.00000000	   1799.89195352	     -0.33978162	    -28.07129857	   -396.82946777	   -278.28483811	   -722.44704630	      0.00000000	      0.00000000	     -0.00000000	  -2955.76877027	      0.00000000	     -0.00000000	      0.00000000	      0.00000000	      0.00000000	      0.00000000	      0.00000000	      0.00000000	      0.00000000
      0.10000000	      0.00000000	     -0.00000000	      0.00000000	      0.00000000	      0.00000000	      0.00000000	      0.00000000	      0.00000000	      0.00000000	      1.97122657	      9.61749554	   -329.38604736	   -289.69055051	   -999.50417545	      0.00000000	      0.00000000	      0.00000000	   1807.96205467	     -0.29984917	    -28.81724736	   -399.81491089	   -278.34926086	   -722.09881837	      0.00000000	      0.00000000	     -0.00000000	  -2934.33140688	      0.00000000	     -0.00000000	      0.00000000	      0.00000000	      0.00000000	      0.00000000	      0.00000000	      0.00000000	      0.00000000
